<svg id="Layer_1" data-name="Layer 1" xmlns="http://www.w3.org/2000/svg" viewBox="0 0 217.16 217.16"><defs><style>.cls-1{fill:#135b48;}.cls-2{fill:#d4af37;}</style></defs><rect class="cls-1" width="217.16" height="217.16"/><path class="cls-2" d="M147.86,122.21s-11.42-11.95-24.05-12.51c0,0,42.38-7.25,33.49-50.29,0,0-6.51-2.91-22.81,1.93l-3.17-8.18s23.68-5.06,32.13-.34c0,0,15,33-17.46,56.88,0,0,7,3.73,10.87,9.65Z"/><path class="cls-2" d="M146,90.44s-16.52-.37-25.84,8.16c0,0,24.83-35.1-11.89-59.24,0,0-6.66,2.55-14.77,17.5l-8-3.55S98.63,33,108,30.35c0,0,33.94,12.67,27.88,52.57,0,0,7.6-2.34,14.51-.86Z"/><path class="cls-2" d="M122.21,69.3s-11.95,11.42-12.51,24c0,0-7.25-42.38-50.29-33.49,0,0-2.91,6.51,1.93,22.81l-8.18,3.17s-5.06-23.67-.34-32.13c0,0,33-15,56.88,17.46,0,0,3.73-7,9.65-10.87Z"/><path class="cls-2" d="M90.44,71.17S90.07,87.69,98.6,97c0,0-35.1-24.83-59.24,11.89,0,0,2.55,6.66,17.5,14.77l-3.55,8s-20.32-13.16-23-22.48c0,0,12.67-33.94,52.57-27.88,0,0-2.34-7.6-.86-14.51Z"/><path class="cls-2" d="M69.3,95s11.42,12,24,12.51c0,0-42.38,7.25-33.49,50.29,0,0,6.51,2.91,22.81-1.93L85.84,164s-23.67,5.06-32.13.34c0,0-15-33,17.46-56.88,0,0-7-3.72-10.87-9.65Z"/><path class="cls-2" d="M71.17,126.72s16.52.37,25.84-8.16c0,0-24.83,35.1,11.89,59.24,0,0,6.66-2.55,14.77-17.49l8,3.54s-13.16,20.32-22.48,23c0,0-33.94-12.67-27.88-52.57,0,0-7.6,2.34-14.51.86Z"/><path class="cls-2" d="M95,147.86s12-11.42,12.51-24.05c0,0,7.25,42.38,50.29,33.49,0,0,2.91-6.51-1.93-22.81l8.18-3.17s5.06,23.68.34,32.13c0,0-33,15-56.88-17.46,0,0-3.72,7-9.65,10.87Z"/><path class="cls-2" d="M126.72,146s.37-16.52-8.16-25.84c0,0,35.1,24.83,59.24-11.89,0,0-2.55-6.66-17.49-14.77l3.54-8s20.32,13.16,23,22.48c0,0-12.67,33.94-52.57,27.88,0,0,2.34,7.6.86,14.51Z"/></svg>