<svg id="Layer_1" data-name="Layer 1" xmlns="http://www.w3.org/2000/svg" viewBox="0 0 1000 186"><defs><style>.cls-1{fill:#d4af37;}.cls-2{fill:#135b48;}</style></defs><path class="cls-1" d="M127.78,109.66s-12.42-13-26.15-13.6c0,0,46.09-7.89,36.42-54.7,0,0-7.08-3.16-24.81,2.1l-3.45-8.89s25.75-5.51,34.94-.37c0,0,16.36,35.84-19,61.86,0,0,7.64,4,11.82,10.49Z"/><path class="cls-1" d="M125.75,75.11s-18-.4-28.11,8.88c0,0,27-38.17-12.92-64.43,0,0-7.24,2.78-16.06,19l-8.72-3.85s14.31-22.1,24.44-25c0,0,36.91,13.78,30.32,57.16,0,0,8.26-2.54,15.78-.93Z"/><path class="cls-1" d="M99.89,52.12s-13,12.42-13.6,26.15c0,0-7.89-46.09-54.7-36.41,0,0-3.16,7.08,2.1,24.8L24.8,70.11s-5.5-25.75-.37-34.94c0,0,35.84-16.36,61.86,19,0,0,4-7.64,10.49-11.82Z"/><path class="cls-1" d="M65.34,54.15s-.4,18,8.88,28.11c0,0-38.17-27-64.43,12.92,0,0,2.78,7.25,19,16.06L25,120S2.87,105.65,0,95.52c0,0,13.78-36.91,57.16-30.31,0,0-2.54-8.27-.93-15.78Z"/><path class="cls-1" d="M42.35,80S54.77,93,68.5,93.61c0,0-46.08,7.9-36.41,54.7,0,0,7.08,3.16,24.8-2.1l3.45,8.89s-25.75,5.51-34.94.37c0,0-16.36-35.84,19-61.86,0,0-7.64-4-11.82-10.49Z"/><path class="cls-1" d="M44.39,114.56s18,.4,28.1-8.87c0,0-27,38.16,12.93,64.42,0,0,7.24-2.77,16-19l8.73,3.85s-14.32,22.1-24.45,25c0,0-36.91-13.77-30.31-57.16,0,0-8.27,2.54-15.78.94Z"/><path class="cls-1" d="M70.25,137.55s13-12.42,13.6-26.15c0,0,7.89,46.09,54.69,36.42,0,0,3.16-7.09-2.1-24.81l8.89-3.45s5.51,25.75.37,34.94c0,0-35.84,16.36-61.85-19,0,0-4,7.64-10.5,11.82Z"/><path class="cls-1" d="M104.79,135.52s.41-18-8.87-28.11c0,0,38.17,27,64.42-12.92,0,0-2.77-7.25-19-16.06l3.85-8.72s22.09,14.31,25,24.44c0,0-13.77,36.91-57.16,30.32,0,0,2.54,8.26.94,15.78Z"/><path class="cls-2" d="M286.31,106.67q-8,0-12.57-2.51a13.48,13.48,0,0,1-6.31-7.83,43.43,43.43,0,0,1-1.79-13.69v-43l-27.94,62h-2.24L206.41,38.5v63.14h-4.48V27.88h10.62L239.37,86l26.27-58.12H275.7V82.64q0,10.17,2.57,16t8,5.82Z"/><path class="cls-2" d="M305.2,102.76a19.64,19.64,0,0,1-5.08-.73,16.71,16.71,0,0,1-5.31-2.51,13.47,13.47,0,0,1-4.19-4.81,15.93,15.93,0,0,1-1.62-7.6q0-6.14,4-9.5a23.84,23.84,0,0,1,10.51-4.75,67.15,67.15,0,0,1,14-1.39h3.35q0-7.83-1.57-11.91T315.09,54a11.73,11.73,0,0,0-6-1.51,14.51,14.51,0,0,0-7.88,2q-3.18,2-4.41,7.49h-5a39.89,39.89,0,0,1,.34-5.42,8,8,0,0,1,2.46-4.64c1.41-1.42,3.72-2.42,6.92-3a54.32,54.32,0,0,1,9.84-.89,30,30,0,0,1,7.32.89,15,15,0,0,1,6.26,3.3,16.34,16.34,0,0,1,4.36,7,38,38,0,0,1,1.62,12.24v30.17h-5.59l-3.91-5h-.56a17.15,17.15,0,0,1-5.48,4.14Q311.57,102.76,305.2,102.76Zm5-5a9.68,9.68,0,0,0,6.54-2.07A21.86,21.86,0,0,0,320.85,91V75.94H317.5q-8.38,0-13.14,3.07t-4.75,8.1c0,3.65,1.08,6.34,3.24,8A11.59,11.59,0,0,0,310.23,97.73Z"/><path class="cls-2" d="M345.88,101.64V62.53a19.66,19.66,0,0,0-1.4-8.11q-1.39-3.08-6.42-3.07h-2.24V49.11h10.06a14.86,14.86,0,0,1,6.09,1A5.9,5.9,0,0,1,355.05,54a30.92,30.92,0,0,1,.89,8.5v39.11Zm4.25-59.23a5.68,5.68,0,0,1-4.42-2.12,7.44,7.44,0,0,1-1.84-5,4.83,4.83,0,0,1,1.4-3.69A5.15,5.15,0,0,1,349,30.23a5.69,5.69,0,0,1,4.42,2.12,7.47,7.47,0,0,1,1.84,5,4.9,4.9,0,0,1-1.4,3.69A5.19,5.19,0,0,1,350.13,42.41Z"/><path class="cls-2" d="M371.14,101.64V62.53a19.82,19.82,0,0,0-1.4-8.11q-1.39-3.08-6.43-3.07h-2.23V49.11h10.06a13.9,13.9,0,0,1,6.42,1.18,6.59,6.59,0,0,1,3.08,3.29h.56A20.56,20.56,0,0,1,387,49.73,20.25,20.25,0,0,1,395.73,48a20.91,20.91,0,0,1,5.42.67A12.24,12.24,0,0,1,405.73,51a12.47,12.47,0,0,1,3.41,4.81A18.68,18.68,0,0,1,416.62,50a22.93,22.93,0,0,1,9.28-2,18,18,0,0,1,7.77,1.67,12.64,12.64,0,0,1,5.7,6q2.17,4.31,2.18,12.46v33.53H431.49V68.11c0-5.58-.78-9.5-2.35-11.73A7.56,7.56,0,0,0,422.55,53a12,12,0,0,0-6.71,2.34,16.76,16.76,0,0,0-5,4.92,12.27,12.27,0,0,1,.51,3.69c0,1.64.05,3,.05,4.13v33.53H401.31V68.11c0-5.58-.78-9.5-2.34-11.73a7.59,7.59,0,0,0-6.6-3.35,11.46,11.46,0,0,0-6.2,1.78,23.43,23.43,0,0,0-5,4.14v42.69Z"/><path class="cls-2" d="M467.47,102.76a19.64,19.64,0,0,1-5.08-.73,16.71,16.71,0,0,1-5.31-2.51,13.47,13.47,0,0,1-4.19-4.81,15.93,15.93,0,0,1-1.62-7.6q0-6.14,4-9.5a23.74,23.74,0,0,1,10.5-4.75,67.15,67.15,0,0,1,14-1.39h3.35q0-7.83-1.57-11.91T477.36,54a11.72,11.72,0,0,0-6-1.51,14.48,14.48,0,0,0-7.88,2q-3.19,2-4.42,7.49h-5a39.89,39.89,0,0,1,.34-5.42,8,8,0,0,1,2.46-4.64c1.41-1.42,3.72-2.42,6.92-3a54.32,54.32,0,0,1,9.84-.89,30,30,0,0,1,7.32.89,15,15,0,0,1,6.26,3.3,16.34,16.34,0,0,1,4.36,7,38,38,0,0,1,1.62,12.24v30.17h-5.59l-3.91-5h-.56a17,17,0,0,1-5.48,4.14Q473.85,102.76,467.47,102.76Zm5-5A9.68,9.68,0,0,0,479,95.66,21.86,21.86,0,0,0,483.12,91V75.94h-3.35q-8.38,0-13.13,3.07t-4.75,8.1c0,3.65,1.07,6.34,3.24,8A11.57,11.57,0,0,0,472.5,97.73Z"/><path class="cls-2" d="M508.15,101.64V62.53a19.84,19.84,0,0,0-1.39-8.11q-1.41-3.08-6.43-3.07h-2.24V49.11h10.06a13.94,13.94,0,0,1,6.43,1.18,6.62,6.62,0,0,1,3.07,3.29,28.27,28.27,0,0,1,6.15-3.74A20.73,20.73,0,0,1,532.74,48a25,25,0,0,1,9.11,1.67,14.82,14.82,0,0,1,7.09,6q2.8,4.31,2.8,12.46v33.53H541.68V68.11a18.73,18.73,0,0,0-1.79-8.88,11.09,11.09,0,0,0-4.58-4.75A12.64,12.64,0,0,0,529.39,53a11.47,11.47,0,0,0-6.21,1.78,23.43,23.43,0,0,0-5,4.14v42.69Z"/><path class="cls-2" d="M577.55,102.76a19.64,19.64,0,0,1-5.08-.73,16.71,16.71,0,0,1-5.31-2.51A13.56,13.56,0,0,1,563,94.71a15.93,15.93,0,0,1-1.62-7.6q0-6.14,4-9.5a23.74,23.74,0,0,1,10.5-4.75,67.22,67.22,0,0,1,14-1.39h3.35q0-7.83-1.56-11.91T587.45,54a11.79,11.79,0,0,0-6-1.51,14.48,14.48,0,0,0-7.88,2q-3.2,2-4.42,7.49h-5a41.56,41.56,0,0,1,.34-5.42,8,8,0,0,1,2.46-4.64c1.41-1.42,3.72-2.42,6.93-3A54.13,54.13,0,0,1,583.7,48a30,30,0,0,1,7.32.89,15,15,0,0,1,6.26,3.3,16.34,16.34,0,0,1,4.36,7,38,38,0,0,1,1.62,12.24v30.17h-5.59l-3.91-5h-.56a17.09,17.09,0,0,1-5.47,4.14Q583.92,102.76,577.55,102.76Zm5-5a9.68,9.68,0,0,0,6.54-2.07A21.86,21.86,0,0,0,593.2,91V75.94h-3.35q-8.39,0-13.13,3.07T572,87.11c0,3.65,1.08,6.34,3.24,8A11.57,11.57,0,0,0,582.58,97.73Z"/><path class="cls-2" d="M616.56,101.64V41.29a19.81,19.81,0,0,0-1.4-8.1q-1.39-3.07-6.43-3.08H606.5V27.88h10.06a14.89,14.89,0,0,1,6.09,1,5.92,5.92,0,0,1,3.07,3.91,30.44,30.44,0,0,1,.9,8.49V53.58a20.56,20.56,0,0,1,5.81-3.85A20.24,20.24,0,0,1,641.14,48a27.68,27.68,0,0,1,7,.89A16.08,16.08,0,0,1,654.22,52a15.11,15.11,0,0,1,4.3,6.15,26.66,26.66,0,0,1,1.62,10v33.53H650.08V68.11a18.73,18.73,0,0,0-1.78-8.88,11.11,11.11,0,0,0-4.59-4.75A12.61,12.61,0,0,0,637.79,53a11.46,11.46,0,0,0-6.2,1.78,23.43,23.43,0,0,0-5,4.14v42.69Z"/><path class="cls-2" d="M704.07,101.64V32.35H694q-6.71,0-10.34,3.07T680,45.2H677.8V36.82a12.08,12.08,0,0,1,.78-4.3,6.64,6.64,0,0,1,2.85-3.35,11.14,11.14,0,0,1,5.87-1.29h52v4.47H714.12v69.29Z"/><path class="cls-2" d="M741.73,101.64V62.53a19.82,19.82,0,0,0-1.4-8.11q-1.4-3.08-6.43-3.07h-1.11V49.11h8.94a13.33,13.33,0,0,1,6.42,1.23,6.72,6.72,0,0,1,3.08,3.8,27.94,27.94,0,0,1,5.53-4A16.45,16.45,0,0,1,765.2,48a17.77,17.77,0,0,1,3.57.39,8.07,8.07,0,0,1,3.13,1.28A9.78,9.78,0,0,1,774,51.8a24.54,24.54,0,0,1,1.78,2.9l-4.47,3.36a7.34,7.34,0,0,0-3.63-2.52,16,16,0,0,0-5.31-.84,12.78,12.78,0,0,0-6.14,1.51,12.05,12.05,0,0,0-4.47,4.08v41.35Z"/><path class="cls-2" d="M795.48,102.76a19.64,19.64,0,0,1-5.08-.73,16.71,16.71,0,0,1-5.31-2.51,13.47,13.47,0,0,1-4.19-4.81,15.93,15.93,0,0,1-1.62-7.6q0-6.14,4-9.5a23.74,23.74,0,0,1,10.5-4.75,67.15,67.15,0,0,1,14-1.39h3.35q0-7.83-1.57-11.91T805.37,54a11.72,11.72,0,0,0-6-1.51,14.48,14.48,0,0,0-7.88,2q-3.19,2-4.42,7.49h-5a39.89,39.89,0,0,1,.34-5.42,8,8,0,0,1,2.46-4.64c1.41-1.42,3.72-2.42,6.93-3a54.13,54.13,0,0,1,9.83-.89,30,30,0,0,1,7.32.89,15,15,0,0,1,6.26,3.3,16.34,16.34,0,0,1,4.36,7,38,38,0,0,1,1.62,12.24v30.17H815.6l-3.91-5h-.56a17,17,0,0,1-5.48,4.14Q801.86,102.76,795.48,102.76Zm5-5a9.68,9.68,0,0,0,6.54-2.07A21.86,21.86,0,0,0,811.13,91V75.94h-3.35q-8.38,0-13.13,3.07t-4.75,8.1c0,3.65,1.08,6.34,3.24,8A11.57,11.57,0,0,0,800.51,97.73Z"/><path class="cls-2" d="M853.71,102.76,836.39,62q-2.68-6.27-5.14-8.78a9.46,9.46,0,0,0-6.49-2.73V48.22c.3,0,.88,0,1.74-.11S828,48,828.56,48a23,23,0,0,1,6.88,1.06A16.61,16.61,0,0,1,842,53.14,26.39,26.39,0,0,1,847.56,62l10.06,24,15.65-36.89h5.59l-22.92,53.65Z"/><path class="cls-2" d="M906.24,102.76q-7.83,0-13-3.69a22.57,22.57,0,0,1-7.83-9.95,35.16,35.16,0,0,1-2.62-13.74,34.35,34.35,0,0,1,2.68-13.8,23.61,23.61,0,0,1,7.71-9.9,19.72,19.72,0,0,1,12-3.68c5.06,0,9.26,1,12.57,2.85a17.35,17.35,0,0,1,7.38,8.32,33.36,33.36,0,0,1,2.4,13.41l-.22,4.47H893.38q0,9.17,4,15.2a12.57,12.57,0,0,0,11.12,6,16.43,16.43,0,0,0,9.11-2.35,23.44,23.44,0,0,0,6.54-6.59L926.35,91a25.07,25.07,0,0,1-5.53,6.82,20,20,0,0,1-6.7,3.75A25.62,25.62,0,0,1,906.24,102.76ZM893.38,72.58h23.47q0-9.72-2.9-14.92a9.49,9.49,0,0,0-8.83-5.19,8.23,8.23,0,0,0-6,2.62A18.45,18.45,0,0,0,895,62.25,31.32,31.32,0,0,0,893.38,72.58Z"/><path class="cls-2" d="M938.53,101.64V41.29a19.82,19.82,0,0,0-1.39-8.1q-1.41-3.07-6.43-3.08h-2.24V27.88h10.06a14.86,14.86,0,0,1,6.09,1,5.9,5.9,0,0,1,3.08,3.91,30.89,30.89,0,0,1,.89,8.49v60.35Z"/><path class="cls-2" d="M980.44,102.76a42.27,42.27,0,0,1-11-1.17,14.23,14.23,0,0,1-6.37-3.3,8.09,8.09,0,0,1-2.46-4.81,58.79,58.79,0,0,1-.33-6.93h2.23a13.51,13.51,0,0,0,4.7,8.61q3.79,3.14,11,3.13c4.24,0,7.35-.74,9.33-2.24a6.76,6.76,0,0,0,3-5.58A7.36,7.36,0,0,0,988,84.82a27,27,0,0,0-7.55-4.41l-6.7-2.8a29.17,29.17,0,0,1-9.89-6.09,12.15,12.15,0,0,1-3.52-9q0-7.05,5.25-10.79T978.77,48a39.42,39.42,0,0,1,10.5,1.17,14.12,14.12,0,0,1,6.26,3.3,8.09,8.09,0,0,1,2.46,4.8,58.91,58.91,0,0,1,.33,6.93h-2.23a13.6,13.6,0,0,0-4.64-8.6Q987.7,52.47,981,52.47c-3.65,0-6.42.74-8.33,2.23a6.86,6.86,0,0,0-2.84,5.59,7.46,7.46,0,0,0,2.34,5.31,19.9,19.9,0,0,0,6.6,4.19l6.7,2.79A35.46,35.46,0,0,1,996.31,79a12.13,12.13,0,0,1,3.69,9.28A12.18,12.18,0,0,1,994.41,99Q988.83,102.76,980.44,102.76Z"/><path class="cls-2" d="M216.44,128.68h5v27.57h-5V144h-12v12.21h-5V128.68h5v11h12Z"/><path class="cls-2" d="M262.66,156.25c-.37-1.09-.75-2.16-1.15-3.22s-.79-2.15-1.16-3.27H248.71c-.38,1.12-.76,2.21-1.14,3.29s-.77,2.14-1.14,3.2h-5.21c1-2.95,2-5.66,2.94-8.16s1.84-4.85,2.73-7.08,1.76-4.34,2.64-6.36,1.77-4,2.7-6H257c.92,2,1.83,3.95,2.7,6s1.76,4.14,2.65,6.36,1.8,4.59,2.74,7.08,1.93,5.21,3,8.16ZM254.53,134q-.92,2.12-2.09,5.13T250,145.71h9.07q-1.28-3.54-2.46-6.61T254.53,134Z"/><path class="cls-2" d="M302.84,147.18a15.67,15.67,0,0,1-.44,3.78,7.49,7.49,0,0,1-1.53,3.06,7.27,7.27,0,0,1-2.95,2.07,12.51,12.51,0,0,1-4.67.75,12.73,12.73,0,0,1-4.55-.73,11.2,11.2,0,0,1-3-1.57l1.79-3.94a14.56,14.56,0,0,0,2.45,1.29,7.52,7.52,0,0,0,3,.62,4.76,4.76,0,0,0,3.7-1.27c.77-.85,1.16-2.31,1.16-4.38V128.68h5Z"/><path class="cls-2" d="M339,147.18a15.68,15.68,0,0,1-.43,3.78A7.75,7.75,0,0,1,337,154a7.27,7.27,0,0,1-2.95,2.07,12.51,12.51,0,0,1-4.67.75,12.83,12.83,0,0,1-4.56-.73,11.28,11.28,0,0,1-3-1.57l1.79-3.94a14.18,14.18,0,0,0,2.45,1.29,7.48,7.48,0,0,0,3,.62,4.76,4.76,0,0,0,3.7-1.27c.77-.85,1.15-2.31,1.15-4.38V128.68H339Z"/><path class="cls-2" d="M385.61,148.93a8,8,0,0,1,.46-2.75A8.27,8.27,0,0,1,387.3,144a9.27,9.27,0,0,1,1.79-1.75,17.05,17.05,0,0,1,2.13-1.36,12,12,0,0,1-1.93-2.7,6.5,6.5,0,0,1-.73-3,6.7,6.7,0,0,1,2-5.21,7.7,7.7,0,0,1,5.4-1.87,9.24,9.24,0,0,1,3,.47,6.2,6.2,0,0,1,2.21,1.32,5.58,5.58,0,0,1,1.33,2,6.41,6.41,0,0,1,.46,2.4,6.71,6.71,0,0,1-.42,2.39,8.08,8.08,0,0,1-1.14,2.05,10.23,10.23,0,0,1-1.65,1.71,13.42,13.42,0,0,1-2,1.37l5.45,5.49a10.88,10.88,0,0,0,.92-2.33,25,25,0,0,0,.56-2.52l4,.51a19.72,19.72,0,0,1-2.5,7.2c.87,1,1.71,2,2.52,3a19.53,19.53,0,0,1,2,3.12h-5a13.5,13.5,0,0,0-1-1.47,18.83,18.83,0,0,0-1.3-1.48,13.28,13.28,0,0,1-3.74,2.39,13.41,13.41,0,0,1-9.22.2,8.34,8.34,0,0,1-2.89-1.83,6.32,6.32,0,0,1-1.55-2.47A8.41,8.41,0,0,1,385.61,148.93Zm4.62-.32a4.07,4.07,0,0,0,1.09,2.73,4.39,4.39,0,0,0,1.51,1,5.66,5.66,0,0,0,2.25.4,9,9,0,0,0,3.24-.56,7,7,0,0,0,2.49-1.59l-7-7.12a11.54,11.54,0,0,0-1.24.76,5.7,5.7,0,0,0-1.15,1,5.47,5.47,0,0,0-.85,1.43A4.86,4.86,0,0,0,390.23,148.61Zm8.63-14.2a2.78,2.78,0,0,0-.76-2,2.83,2.83,0,0,0-2.18-.81,2.89,2.89,0,0,0-2.31.91,3.4,3.4,0,0,0-.8,2.31,4.7,4.7,0,0,0,.64,2.29,9,9,0,0,0,1.75,2.16,11.1,11.1,0,0,0,1.41-.87,6.63,6.63,0,0,0,1.16-1.08,5,5,0,0,0,.79-1.31A4.19,4.19,0,0,0,398.86,134.41Z"/><path class="cls-2" d="M466.84,156.84A13.06,13.06,0,0,1,462,156a8.92,8.92,0,0,1-3.37-2.29,9.47,9.47,0,0,1-2-3.46,14.37,14.37,0,0,1-.63-4.37V128.68h5.05v16.75a10.7,10.7,0,0,0,.42,3.2,5.59,5.59,0,0,0,1.19,2.17,4.7,4.7,0,0,0,1.83,1.23,6.55,6.55,0,0,0,2.37.4,6.68,6.68,0,0,0,2.38-.4,4.56,4.56,0,0,0,1.85-1.23,5.6,5.6,0,0,0,1.2-2.17,10.7,10.7,0,0,0,.42-3.2V128.68h5v17.23a13.77,13.77,0,0,1-.66,4.37,9.51,9.51,0,0,1-2,3.46,8.88,8.88,0,0,1-3.4,2.29A13.39,13.39,0,0,1,466.84,156.84Z"/><path class="cls-2" d="M506.48,128.68c.58,1,1.23,2.24,1.94,3.7s1.45,3,2.19,4.6,1.48,3.23,2.21,4.89l2,4.59,2-4.59q1.06-2.49,2.19-4.89t2.18-4.6c.72-1.46,1.37-2.69,1.95-3.7h4.52q.36,3,.69,6.43c.21,2.26.41,4.58.58,7s.34,4.76.49,7.16.28,4.74.39,7h-4.94c-.11-3.21-.23-6.51-.38-9.91s-.37-6.68-.67-9.86l-1,2.19c-.39.85-.82,1.77-1.27,2.76s-.91,2-1.37,3.08-.92,2.09-1.35,3.09-.85,1.92-1.22,2.78l-1,2.21h-3.74c-.27-.61-.58-1.35-.95-2.23s-.78-1.81-1.22-2.8-.89-2-1.35-3.09-.92-2.08-1.37-3.06l-1.28-2.76c-.39-.86-.74-1.59-1-2.17q-.45,4.77-.67,9.86t-.38,9.91h-4.94q.17-3.42.39-7.08t.48-7.26c.18-2.4.37-4.73.59-7s.45-4.34.69-6.25Z"/><path class="cls-2" d="M559.48,128.4q6,0,9.13,2.19a7.57,7.57,0,0,1,3.16,6.68q0,5.61-5.53,7.6c.51.61,1.08,1.35,1.71,2.23s1.29,1.82,1.95,2.84,1.3,2.07,1.91,3.15,1.15,2.12,1.63,3.16h-5.61c-.5-1-1.05-1.92-1.63-2.89s-1.17-1.91-1.77-2.82-1.19-1.78-1.77-2.59-1.13-1.53-1.63-2.16c-.37,0-.69,0-.95,0h-3.19v10.42h-5V129.08a28.65,28.65,0,0,1,3.9-.54C557.16,128.45,558.39,128.4,559.48,128.4Zm.36,4.34c-1.06,0-2,0-3,.12v8.91h2.19a23.31,23.31,0,0,0,3.22-.2,6.59,6.59,0,0,0,2.33-.72,3.43,3.43,0,0,0,1.41-1.39,4.58,4.58,0,0,0,.48-2.23,4.4,4.4,0,0,0-.48-2.14,3.54,3.54,0,0,0-1.37-1.4,6.52,6.52,0,0,0-2.13-.73A15.06,15.06,0,0,0,559.84,132.74Z"/><path class="cls-2" d="M612.94,156.25c-.37-1.09-.76-2.16-1.16-3.22s-.78-2.15-1.15-3.27H599c-.37,1.12-.75,2.21-1.13,3.29s-.77,2.14-1.14,3.2H591.5c1-2.95,2-5.66,2.94-8.16s1.84-4.85,2.72-7.08,1.77-4.34,2.65-6.36,1.77-4,2.7-6h4.78c.93,2,1.83,3.95,2.71,6s1.75,4.14,2.64,6.36,1.81,4.59,2.75,7.08,1.93,5.21,3,8.16ZM604.81,134q-.91,2.12-2.09,5.13t-2.45,6.57h9.07q-1.27-3.54-2.47-6.61T604.81,134Z"/><path class="cls-2" d="M655.06,128.68h5v27.57h-5V144h-12v12.21h-5V128.68h5v11h12Z"/><path class="cls-2" d="M715.17,152.51a6.71,6.71,0,0,0,3.94-.92,3,3,0,0,0,1.23-2.58,3.33,3.33,0,0,0-.42-1.71,4.37,4.37,0,0,0-1.19-1.29,9.8,9.8,0,0,0-1.89-1.08c-.74-.33-1.59-.65-2.55-1s-1.87-.73-2.76-1.14a9.34,9.34,0,0,1-2.35-1.53,7.13,7.13,0,0,1-1.63-2.19,7,7,0,0,1-.62-3.06,7.18,7.18,0,0,1,2.59-5.87,10.79,10.79,0,0,1,7-2.12,16.85,16.85,0,0,1,4.59.57,14.44,14.44,0,0,1,3.17,1.26l-1.56,4.05a12.07,12.07,0,0,0-3-1.15,14,14,0,0,0-3.32-.4,5.21,5.21,0,0,0-3.16.84,2.73,2.73,0,0,0-1.14,2.34,3.16,3.16,0,0,0,.38,1.58,4,4,0,0,0,1.08,1.17,9.21,9.21,0,0,0,1.63.95,21.22,21.22,0,0,0,2.05.84c1.29.48,2.45,1,3.48,1.45a9.67,9.67,0,0,1,2.58,1.75,6.86,6.86,0,0,1,1.61,2.39,8.83,8.83,0,0,1,.56,3.32,6.89,6.89,0,0,1-2.65,5.79q-2.64,2-7.73,2a21.51,21.51,0,0,1-3.13-.21,21.13,21.13,0,0,1-2.5-.54,15.69,15.69,0,0,1-1.89-.66,11,11,0,0,1-1.27-.61l1.47-4.1a16,16,0,0,0,2.9,1.19A14.27,14.27,0,0,0,715.17,152.51Z"/><path class="cls-2" d="M746.23,156.25V128.68h17.7v4.26H751.24v6.8h11.3v4.18h-11.3V152h13.65v4.26Z"/><path class="cls-2" d="M793.41,128.4q6,0,9.13,2.19a7.57,7.57,0,0,1,3.16,6.68q0,5.61-5.53,7.6c.51.61,1.08,1.35,1.71,2.23s1.29,1.82,2,2.84,1.3,2.07,1.91,3.15,1.15,2.12,1.63,3.16h-5.61c-.5-1-1-1.92-1.63-2.89s-1.17-1.91-1.77-2.82-1.19-1.78-1.77-2.59-1.13-1.53-1.63-2.16c-.37,0-.69,0-1,0h-3.19v10.42h-5V129.08a28.65,28.65,0,0,1,3.9-.54C791.09,128.45,792.32,128.4,793.41,128.4Zm.36,4.34c-1.06,0-2,0-2.95.12v8.91H793a23.31,23.31,0,0,0,3.22-.2,6.59,6.59,0,0,0,2.33-.72,3.43,3.43,0,0,0,1.41-1.39,4.58,4.58,0,0,0,.48-2.23,4.4,4.4,0,0,0-.48-2.14,3.54,3.54,0,0,0-1.37-1.4,6.52,6.52,0,0,0-2.13-.73A15.06,15.06,0,0,0,793.77,132.74Z"/><path class="cls-2" d="M835.06,156.25q-3-6.45-5.75-13.49t-5.15-14.08h5.53c.63,1.86,1.29,3.76,1.95,5.69s1.33,3.84,2,5.71,1.33,3.68,2,5.43,1.31,3.35,2,4.81c.61-1.46,1.25-3,1.92-4.79s1.33-3.55,2-5.43,1.35-3.79,2-5.73,1.31-3.83,1.92-5.69h5.37q-2.43,7-5.19,14.08t-5.75,13.49Z"/><path class="cls-2" d="M870.62,128.68h5v27.57h-5Z"/><path class="cls-2" d="M910.75,156.84a15.28,15.28,0,0,1-5.57-1,11.08,11.08,0,0,1-4.17-2.8,12.62,12.62,0,0,1-2.63-4.52,18.81,18.81,0,0,1-.91-6.12,16.65,16.65,0,0,1,1-6.13,13.15,13.15,0,0,1,2.89-4.51A12.11,12.11,0,0,1,905.7,129a14.48,14.48,0,0,1,5.29-.95,16.31,16.31,0,0,1,3.1.26,22.07,22.07,0,0,1,2.43.57,9.63,9.63,0,0,1,1.71.68l1,.52-1.48,4.09A11.53,11.53,0,0,0,915,133a13.1,13.1,0,0,0-3.84-.54,9,9,0,0,0-3.34.62,7.21,7.21,0,0,0-2.68,1.85,8.59,8.59,0,0,0-1.78,3.1,13.6,13.6,0,0,0-.63,4.34,14.93,14.93,0,0,0,.5,4,8.91,8.91,0,0,0,1.53,3.17,7,7,0,0,0,2.62,2.06,8.92,8.92,0,0,0,3.82.74,14.46,14.46,0,0,0,4.34-.54,16.33,16.33,0,0,0,2.58-1l1.35,4.1a6.46,6.46,0,0,1-1.29.63,18.49,18.49,0,0,1-1.93.62,19.18,19.18,0,0,1-2.5.48A23.51,23.51,0,0,1,910.75,156.84Z"/><path class="cls-2" d="M940.15,156.25V128.68h17.7v4.26H945.16v6.8h11.3v4.18h-11.3V152H958.8v4.26Z"/><path class="cls-2" d="M986.41,152.51a6.69,6.69,0,0,0,3.94-.92,3,3,0,0,0,1.23-2.58,3.33,3.33,0,0,0-.42-1.71A4.24,4.24,0,0,0,990,146a9.8,9.8,0,0,0-1.89-1.08c-.74-.33-1.59-.65-2.55-1s-1.87-.73-2.76-1.14a9.34,9.34,0,0,1-2.35-1.53,7.13,7.13,0,0,1-1.63-2.19,7,7,0,0,1-.61-3.06,7.2,7.2,0,0,1,2.58-5.87,10.79,10.79,0,0,1,7-2.12,16.88,16.88,0,0,1,4.6.57,14.53,14.53,0,0,1,3.16,1.26L994,133.93a12.3,12.3,0,0,0-3-1.15,14,14,0,0,0-3.32-.4,5.23,5.23,0,0,0-3.16.84,2.72,2.72,0,0,0-1.13,2.34,3.16,3.16,0,0,0,.37,1.58,4.08,4.08,0,0,0,1.08,1.17,9.59,9.59,0,0,0,1.63.95c.62.3,1.31.57,2,.84,1.3.48,2.46,1,3.48,1.45a9.67,9.67,0,0,1,2.58,1.75,6.73,6.73,0,0,1,1.61,2.39,8.64,8.64,0,0,1,.56,3.32,6.91,6.91,0,0,1-2.64,5.79q-2.65,2-7.74,2a19.69,19.69,0,0,1-5.63-.75,15.69,15.69,0,0,1-1.89-.66,11.92,11.92,0,0,1-1.27-.61l1.47-4.1a16.29,16.29,0,0,0,2.9,1.19A14.31,14.31,0,0,0,986.41,152.51Z"/></svg>